# xmcd
#
# Track frame offsets:
#	182
#	15460
#	35345
#	51457
#	68570
#	87357
#	105997
#	124682
#	141497
#	157977
#	174782
#	189957
#
# Disc length: 2718 seconds
#
# Revision: 1
# Processed by: cddbd v1.5.1PL0 Copyright (c) Steve Scherf et al.
# Submitted via: audiograbber 1.83.01
#
DISCID=900a9c0c
DTITLE=Wolfgang Fierek - I bin koa Engel
DYEAR=1998
DGENRE=
TTITLE0=Nix ist umsonst
TTITLE1=Dahoam
TTITLE2=Sauguat
TTITLE3=Paradies
TTITLE4=Julia
TTITLE5=I bin koa Engel
TTITLE6=Du bist wie Musik
TTITLE7=Wenn Du lachst
TTITLE8=Feiern bis morgen früh
TTITLE9=Weil Du der Wahnsinn bist
TTITLE10=Alles was Du wuist
TTITLE11=Beika Song
EXTD=
EXTT0=
EXTT1=
EXTT2=
EXTT3=
EXTT4=
EXTT5=
EXTT6=
EXTT7=
EXTT8=
EXTT9=
EXTT10=
EXTT11=
PLAYORDER=
